HIERARCHY
ROOT Hips
{
	OFFSET 0.000000 0.000000 0.000000
	CHANNELS 6 Xposition Yposition Zposition Zrotation Yrotation Xrotation 
	JOINT LeftUpLeg_virtual
	{
		OFFSET 0.000000 0.000000 0.000000
		CHANNELS 3 Zrotation Yrotation Xrotation
		JOINT LeftUpLeg
		{
			OFFSET 10.205400 -3.823500 0.155100
			CHANNELS 3 Zrotation Yrotation Xrotation
			JOINT LeftLeg
			{
				OFFSET 0.708757 -12.982077 0.567790
				CHANNELS 3 Zrotation Yrotation Xrotation
				JOINT LeftFoot
				{
					OFFSET -0.708756 -10.717838 -2.184338
					CHANNELS 3 Zrotation Yrotation Xrotation
					JOINT LeftToeBase
					{
						OFFSET 0.108149 -7.191104 7.560241
						CHANNELS 3 Zrotation Yrotation Xrotation
						End Site
						{
							OFFSET 0.000000 0.000000 0.000000
						}
					}
				}
			}
		}
	}
	JOINT RightUpLeg_virtual
	{
		OFFSET 0.000000 0.000000 0.000000
		CHANNELS 3 Zrotation Yrotation Xrotation
		JOINT RightUpLeg
		{
			OFFSET -10.205400 -3.823500 0.005500
			CHANNELS 3 Zrotation Yrotation Xrotation
			JOINT RightLeg
			{
				OFFSET -0.708756 -12.982134 0.610632
				CHANNELS 3 Zrotation Yrotation Xrotation
				JOINT RightFoot
				{
					OFFSET 0.708754 -10.717769 -1.945823
					CHANNELS 3 Zrotation Yrotation Xrotation
					JOINT RightToeBase
					{
						OFFSET -0.108140 -7.191069 7.372968
						CHANNELS 3 Zrotation Yrotation Xrotation
						End Site
						{
							OFFSET 0.000000 0.000000 0.000000
						}
					}
				}
			}
		}
	}
	JOINT Spine_virtual
	{
		OFFSET 0.000000 0.000000 0.000000
		CHANNELS 3 Zrotation Yrotation Xrotation
		JOINT Spine
		{
			OFFSET 0.000000 6.876099 0.125700
			CHANNELS 3 Zrotation Yrotation Xrotation
			JOINT Spine1
			{
				OFFSET 0.000000 8.022060 0.146608
				CHANNELS 3 Zrotation Yrotation Xrotation
				JOINT Spine2
				{
					OFFSET 0.000000 9.168068 0.167552
					CHANNELS 3 Zrotation Yrotation Xrotation
					JOINT Neck_virtual
					{
						OFFSET 0.000000 0.000000 0.000000
						CHANNELS 3 Zrotation Yrotation Xrotation
						JOINT Neck
						{
							OFFSET 0.000000 10.314075 0.188496
							CHANNELS 3 Zrotation Yrotation Xrotation
							JOINT Head
							{
								OFFSET 0.000000 7.643700 -2.377400
								CHANNELS 3 Zrotation Yrotation Xrotation
								End Site
								{
									OFFSET 0.000000 0.000000 0.000000
								}
							}
						}
					}
					JOINT LeftShoulder_virtual
					{
						OFFSET 0.000000 0.000000 0.000000
						CHANNELS 3 Zrotation Yrotation Xrotation
						JOINT LeftShoulder
						{
							OFFSET 4.392200 8.824978 0.174984
							CHANNELS 3 Zrotation Yrotation Xrotation
							JOINT LeftArm
							{
								OFFSET 8.771219 -2.981674 -0.026999
								CHANNELS 3 Zrotation Yrotation Xrotation
								JOINT LeftForeArm
								{
									OFFSET 8.512804 0.000000 -0.000000
									CHANNELS 3 Zrotation Yrotation Xrotation
									JOINT LeftHand
									{
										OFFSET 18.484802 0.000000 -0.000000
										CHANNELS 3 Zrotation Yrotation Xrotation
										End Site
										{
											OFFSET 0.000000 0.000000 0.000000
										}
									}
								}
							}
						}
					}
					JOINT RightShoulder_virtual
					{
						OFFSET 0.000000 0.000000 0.000000
						CHANNELS 3 Zrotation Yrotation Xrotation
						JOINT RightShoulder
						{
							OFFSET -4.392200 8.824993 0.141379
							CHANNELS 3 Zrotation Yrotation Xrotation
							JOINT RightArm
							{
								OFFSET -8.771282 -2.981682 -0.094208
								CHANNELS 3 Zrotation Yrotation Xrotation
								JOINT RightForeArm
								{
									OFFSET -8.494598 0.000000 0.000000
									CHANNELS 3 Zrotation Yrotation Xrotation
									JOINT RightHand
									{
										OFFSET -18.483803 0.000000 0.000001
										CHANNELS 3 Zrotation Yrotation Xrotation
										End Site
										{
											OFFSET 0.000000 0.000000 0.000000
										}
									}
								}
							}
						}
					}
				}
			}
		}
	}
}
MOTION
Frames: 4
Frame Time: 0.033333
-3.249934 20.712797 -12.857067 -179.983421 10.242491 -179.988161 3.937985 -2.229540 -19.915117 3.637273 7.408876 -63.170753 21.732847 -0.279089 73.143526 0.602299 -8.778047 17.120110 0.000000 0.000000 0.000000 4.292334 4.810211 -19.904293 1.978638 7.501710 -60.075352 -5.087295 3.229334 69.773429 4.074002 6.061023 17.009227 0.000000 0.000000 0.000000 2.259762 5.050488 -25.131763 3.615776 -3.584994 -5.997190 0.599152 2.764283 8.622953 -0.017141 -0.008202 0.007154 0.135898 5.457410 15.991194 20.577096 -0.576732 27.869356 0.000000 0.000000 0.000000 2.547379 5.823532 11.657006 -1.967587 -13.398466 -3.795459 11.280215 -8.260949 -51.071913 -134.895826 -81.251985 159.170237 0.000000 0.000000 0.000000 -3.278171 7.638127 10.344972 26.817117 -12.251808 -27.125632 2.775252 -19.911629 -42.702650 175.094850 44.465956 175.940701 0.000000 0.000000 0.000000 
-3.283053 20.741045 -12.957720 -179.928561 10.298734 179.888140 3.966009 -2.337267 -19.158344 3.853245 7.265608 -63.457696 21.615015 -0.449044 74.183552 0.451412 -8.933766 16.260652 0.000000 0.000000 0.000000 4.389154 4.649769 -19.141480 1.220782 7.638581 -60.398174 -4.675572 3.948544 69.980595 4.732621 6.360233 16.272569 0.000000 0.000000 0.000000 2.325798 4.995514 -24.589168 3.537523 -3.149501 -5.816806 0.493754 2.772083 8.720612 -0.000914 0.064930 0.001509 0.011147 5.392408 16.035867 20.084262 -0.366465 27.574797 0.000000 0.000000 0.000000 2.384534 5.732065 11.727173 -2.069763 -14.170089 -3.496625 7.677445 -6.238412 -47.487522 -131.796983 -81.488412 156.354518 0.000000 0.000000 0.000000 -3.381818 7.537650 10.433838 26.284124 -12.270306 -26.280936 7.880611 -24.122249 -41.673880 175.444255 46.119913 176.103929 0.000000 0.000000 0.000000 
-3.328916 20.756851 -13.055210 -179.949065 10.241339 179.873319 4.005510 -2.545403 -18.330636 4.032100 7.296578 -63.776365 21.336135 -0.763080 75.315772 0.349707 -9.035458 15.131338 0.000000 0.000000 0.000000 4.407980 4.416513 -18.506517 0.659988 7.644248 -60.868488 -4.480855 4.417190 69.924724 4.754370 6.176804 15.668259 0.000000 0.000000 0.000000 2.332391 4.979527 -24.099472 3.392892 -2.553353 -5.674512 0.351871 2.557005 8.786916 -0.001822 -0.069451 -0.004417 -0.128395 5.354707 16.099709 19.383749 -0.061968 27.268089 0.000000 0.000000 0.000000 2.256785 5.752144 11.792639 -2.285841 -14.842059 -3.119570 3.899560 -3.985327 -43.179428 -128.952578 -81.647603 153.770535 0.000000 0.000000 0.000000 -3.452760 7.480803 10.563119 25.705668 -12.082232 -25.288162 12.810515 -28.400968 -40.098053 175.781626 47.949301 176.298657 0.000000 0.000000 0.000000 
-3.371955 20.762976 -13.138189 -179.878865 10.289630 179.989691 4.245500 -2.604784 -17.459594 4.096508 7.369321 -64.305302 21.172214 -0.933119 76.187673 0.467754 -8.977517 14.312165 0.000000 0.000000 0.000000 4.557136 4.358597 -17.826604 0.164233 7.486750 -61.642191 -4.337554 4.853471 69.723848 4.742188 5.955180 15.324747 0.000000 0.000000 0.000000 2.480946 4.858144 -23.617742 3.269238 -1.993904 -5.561225 0.241394 2.518038 8.833343 -0.008432 -0.030904 -0.019537 -0.296781 5.280580 16.199334 18.562724 0.311349 26.797919 0.000000 0.000000 0.000000 2.084574 5.710747 11.925017 -2.531250 -15.593172 -2.698998 0.067345 -1.388961 -38.356604 -126.216104 -81.662425 151.250222 0.000000 0.000000 0.000000 -3.589226 7.393493 10.747083 25.018413 -11.763222 -24.188818 17.256826 -32.467625 -37.903199 176.037416 49.854394 176.444523 0.000000 0.000000 0.000000 
